<?xml version="1.0" encoding="iso-8859-1"?>
<!-- Uploaded to: SVG Repo, www.svgrepo.com, Generator: SVG Repo Mixer Tools -->
<svg height="800px" width="800px" version="1.1" id="Layer_1" xmlns="http://www.w3.org/2000/svg" xmlns:xlink="http://www.w3.org/1999/xlink" 
	 viewBox="0 0 512 512" xml:space="preserve">
<polygon style="fill:#FFFFFF;" points="58,397.144 58,114.856 256,9.072 454,114.856 454,397.144 256,502.936 "/>
<path style="fill:#E21B1B;" d="M256,18.144l190,101.512V392.36L256,493.872L66,392.352V119.648L256,18.144 M256,0L50,110.056
	v291.888L256,512l206-110.056V110.056L256,0L256,0z"/>
<circle cx="185.4" cy="138.928" r="22.792"/>
<path d="M210.856,170.832H159.96c-17.944,0-32.552,14.608-32.552,32.552v63.832c0,6.536,5.304,11.84,11.84,11.84
	s11.84-5.304,11.84-11.84V209.96h7.104v53.976c0,0.024-0.008,0.048-0.008,0.072v120.688c0,6.536,5.304,11.84,11.84,11.84
	s11.84-5.304,11.84-11.84v-97.088h7.104v97.096c0,6.536,5.304,11.84,11.84,11.84s11.84-5.304,11.84-11.84v-97.096v-23.592v-54.048
	h7.104v57.256c0,6.536,5.304,11.84,11.84,11.84s11.84-5.304,11.84-11.84v-63.832C243.408,185.44,228.8,170.832,210.856,170.832z"/>
<g>
	<circle style="fill:#C9C9C9;" cx="325.392" cy="138.928" r="22.792"/>
	<path style="fill:#C9C9C9;" d="M350.848,170.832h-50.896c-17.944,0-32.552,14.608-32.552,32.552v63.832
		c0,6.536,5.304,11.84,11.84,11.84s11.84-5.304,11.84-11.84V209.96h7.104v53.976c0,0.024-0.008,0.048-0.008,0.072v120.688
		c0,6.536,5.304,11.84,11.84,11.84s11.84-5.304,11.84-11.84v-97.088h7.104v97.096c0,6.536,5.304,11.84,11.84,11.84
		s11.84-5.304,11.84-11.84v-97.096v-23.592v-54.048h7.104v57.256c0,6.536,5.304,11.84,11.84,11.84s11.84-5.304,11.84-11.84v-63.832
		C383.4,185.44,368.792,170.832,350.848,170.832z"/>
</g>
</svg>